<svg width="3532" height="1797" xmlns="http://www.w3.org/2000/svg" xmlns:xlink="http://www.w3.org/1999/xlink" xml:space="preserve" overflow="hidden"><defs><linearGradient x1="488" y1="952" x2="488" y2="1252" gradientUnits="userSpaceOnUse" spreadMethod="reflect" id="fill0"><stop offset="0" stop-color="#9CA0B5"/><stop offset="0.5" stop-color="#8E93A9"/><stop offset="1" stop-color="#79809E"/></linearGradient><linearGradient x1="2675" y1="322" x2="2675" y2="755" gradientUnits="userSpaceOnUse" spreadMethod="reflect" id="fill1"><stop offset="0" stop-color="#B7E29D"/><stop offset="0.5" stop-color="#ABD890"/><stop offset="1" stop-color="#9FD77B"/></linearGradient><linearGradient x1="2699" y1="786" x2="2699" y2="1419" gradientUnits="userSpaceOnUse" spreadMethod="reflect" id="fill2"><stop offset="0" stop-color="#B7E29D"/><stop offset="0.5" stop-color="#ABD890"/><stop offset="1" stop-color="#9FD77B"/></linearGradient><linearGradient x1="2327" y1="1449" x2="2327" y2="2082" gradientUnits="userSpaceOnUse" spreadMethod="reflect" id="fill3"><stop offset="0" stop-color="#B7E29D"/><stop offset="0.5" stop-color="#ABD890"/><stop offset="1" stop-color="#9FD77B"/></linearGradient><linearGradient x1="1246" y1="952" x2="1246" y2="1085" gradientUnits="userSpaceOnUse" spreadMethod="reflect" id="fill4"><stop offset="0" stop-color="#A6DDEF"/><stop offset="0.5" stop-color="#97D6EB"/><stop offset="1" stop-color="#84D3ED"/></linearGradient><linearGradient x1="1246" y1="1119" x2="1246" y2="1253" gradientUnits="userSpaceOnUse" spreadMethod="reflect" id="fill5"><stop offset="0" stop-color="#A6DDEF"/><stop offset="0.5" stop-color="#97D6EB"/><stop offset="1" stop-color="#84D3ED"/></linearGradient></defs><g transform="translate(-103 -313)"><rect x="136" y="952" width="704" height="300" stroke="#052F6D" stroke-width="2.29167" stroke-miterlimit="8" fill="url(#fill0)"/><text fill="#052F6D" font-family="Calibri,Calibri_MSFontService,sans-serif" font-weight="700" font-size="110" transform="matrix(1 0 0 1 248.922 1072)">E</text><text fill="#052F6D" font-family="Calibri,Calibri_MSFontService,sans-serif" font-weight="400" font-size="110" transform="matrix(1 0 0 1 302.777 1072)">xpression </text><text fill="#052F6D" font-family="Calibri,Calibri_MSFontService,sans-serif" font-weight="700" font-size="110" transform="matrix(1 0 0 1 169.356 1204)">A</text><text fill="#052F6D" font-family="Calibri,Calibri_MSFontService,sans-serif" font-weight="400" font-size="110" transform="matrix(1 0 0 1 235.814 1204)">nalysis </text><text fill="#052F6D" font-family="Calibri,Calibri_MSFontService,sans-serif" font-weight="700" font-size="110" transform="matrix(1 0 0 1 556.189 1204)">S</text><text fill="#052F6D" font-family="Calibri,Calibri_MSFontService,sans-serif" font-weight="400" font-size="110" transform="matrix(1 0 0 1 608.325 1204)">hin</text><text fill="#052F6D" font-family="Calibri,Calibri_MSFontService,sans-serif" font-weight="700" font-size="110" transform="matrix(1 0 0 1 749.262 1204)">Y</text><rect x="1772" y="322" width="1806" height="433" stroke="#73BB1F" stroke-width="2.29167" stroke-miterlimit="8" fill="url(#fill1)"/><text fill="#052F6D" font-family="Calibri,Calibri_MSFontService,sans-serif" font-weight="700" font-size="83" transform="matrix(1 0 0 1 1804.99 415)">Data Exploration</text><text fill="#052F6D" font-family="Arial,Arial_MSFontService,sans-serif" font-weight="400" font-size="83" transform="matrix(1 0 0 1 1804.99 514)">•</text><text fill="#052F6D" font-family="Calibri,Calibri_MSFontService,sans-serif" font-weight="400" font-size="83" transform="matrix(1 0 0 1 1928.74 514)">Unsupervised Clustering</text><text fill="#052F6D" font-family="Arial,Arial_MSFontService,sans-serif" font-weight="400" font-size="83" transform="matrix(1 0 0 1 1804.99 613)">•</text><text fill="#052F6D" font-family="Calibri,Calibri_MSFontService,sans-serif" font-weight="400" font-size="83" transform="matrix(1 0 0 1 1928.74 613)">Paired Expression Comparison</text><text fill="#052F6D" font-family="Arial,Arial_MSFontService,sans-serif" font-weight="400" font-size="83" transform="matrix(1 0 0 1 1804.99 712)">•</text><text fill="#052F6D" font-family="Calibri,Calibri_MSFontService,sans-serif" font-weight="400" font-size="83" transform="matrix(1 0 0 1 1928.74 712)">Feature Stratification Across Feature Expression</text><rect x="1772" y="786" width="1854" height="633" stroke="#73BB1F" stroke-width="2.29167" stroke-miterlimit="8" fill="url(#fill2)"/><text fill="#052F6D" font-family="Calibri,Calibri_MSFontService,sans-serif" font-weight="700" font-size="83" transform="matrix(1 0 0 1 1804.99 879)">Differential Expression</text><text fill="#052F6D" font-family="Arial,Arial_MSFontService,sans-serif" font-weight="400" font-size="83" transform="matrix(1 0 0 1 1804.99 978)">•</text><text fill="#052F6D" font-family="Calibri,Calibri_MSFontService,sans-serif" font-weight="400" font-size="83" transform="matrix(1 0 0 1 1928.74 978)">Interactive Volcano Plot</text><text fill="#052F6D" font-family="Arial,Arial_MSFontService,sans-serif" font-weight="400" font-size="83" transform="matrix(1 0 0 1 1804.99 1077)">•</text><text fill="#052F6D" font-family="Calibri,Calibri_MSFontService,sans-serif" font-weight="400" font-size="83" transform="matrix(1 0 0 1 1928.74 1077)">Interactive MA Plot</text><text fill="#052F6D" font-family="Arial,Arial_MSFontService,sans-serif" font-weight="400" font-size="83" transform="matrix(1 0 0 1 1804.99 1176)">•</text><text fill="#052F6D" font-family="Calibri,Calibri_MSFontService,sans-serif" font-weight="400" font-size="83" transform="matrix(1 0 0 1 1928.74 1176)">Average Feature Expression Between Two Groups</text><text fill="#052F6D" font-family="Arial,Arial_MSFontService,sans-serif" font-weight="400" font-size="83" transform="matrix(1 0 0 1 1804.99 1275)">•</text><text fill="#052F6D" font-family="Calibri,Calibri_MSFontService,sans-serif" font-weight="400" font-size="83" transform="matrix(1 0 0 1 1928.74 1275)">Differential Expression Analysis with Limma</text><text fill="#052F6D" font-family="Arial,Arial_MSFontService,sans-serif" font-weight="400" font-size="83" transform="matrix(1 0 0 1 1804.99 1374)">•</text><text fill="#052F6D" font-family="Calibri,Calibri_MSFontService,sans-serif" font-weight="400" font-size="83" transform="matrix(1 0 0 1 1928.74 1374)">Derive Genesets from Input </text><text fill="#052F6D" font-family="Calibri,Calibri_MSFontService,sans-serif" font-weight="400" font-size="83" transform="matrix(1 0 0 1 2873.2 1374)">Data</text><rect x="1772" y="1449" width="1110" height="633" stroke="#73BB1F" stroke-width="2.29167" stroke-miterlimit="8" fill="url(#fill3)"/><text fill="#052F6D" font-family="Calibri,Calibri_MSFontService,sans-serif" font-weight="700" font-size="83" transform="matrix(1 0 0 1 1804.99 1543)">Gene Set Enrichment Analysis</text><text fill="#052F6D" font-family="Arial,Arial_MSFontService,sans-serif" font-weight="400" font-size="83" transform="matrix(1 0 0 1 1804.99 1642)">•</text><text fill="#052F6D" font-family="Calibri,Calibri_MSFontService,sans-serif" font-weight="400" font-size="83" transform="matrix(1 0 0 1 1928.74 1642)">GSEA Enrichment Plot</text><text fill="#052F6D" font-family="Arial,Arial_MSFontService,sans-serif" font-weight="400" font-size="83" transform="matrix(1 0 0 1 1804.99 1741)">•</text><text fill="#052F6D" font-family="Calibri,Calibri_MSFontService,sans-serif" font-weight="400" font-size="83" transform="matrix(1 0 0 1 1928.74 1741)">GSEA Enrichment Heatmap</text><text fill="#052F6D" font-family="Arial,Arial_MSFontService,sans-serif" font-weight="400" font-size="83" transform="matrix(1 0 0 1 1804.99 1840)">•</text><text fill="#052F6D" font-family="Calibri,Calibri_MSFontService,sans-serif" font-weight="400" font-size="83" transform="matrix(1 0 0 1 1928.74 1840)">Enriched Signature Table</text><text fill="#052F6D" font-family="Arial,Arial_MSFontService,sans-serif" font-weight="400" font-size="83" transform="matrix(1 0 0 1 1804.99 1939)">•</text><text fill="#052F6D" font-family="Calibri,Calibri_MSFontService,sans-serif" font-weight="400" font-size="83" transform="matrix(1 0 0 1 1928.74 1939)">ssGSEA Boxplots</text><text fill="#052F6D" font-family="Arial,Arial_MSFontService,sans-serif" font-weight="400" font-size="83" transform="matrix(1 0 0 1 1804.99 2038)">•</text><text fill="#052F6D" font-family="Calibri,Calibri_MSFontService,sans-serif" font-weight="400" font-size="83" transform="matrix(1 0 0 1 1928.74 2038)">ssGSEA Heatmaps</text><rect x="911" y="952" width="670" height="133" stroke="#39BFDF" stroke-width="2.29167" stroke-miterlimit="8" fill="url(#fill4)"/><text fill="#052F6D" font-family="Calibri,Calibri_MSFontService,sans-serif" font-weight="400" font-size="83" transform="matrix(1 0 0 1 947.494 1046)">Expression Matrix</text><rect x="911" y="1119" width="670" height="134" stroke="#39BFDF" stroke-width="2.29167" stroke-miterlimit="8" fill="url(#fill5)"/><text fill="#052F6D" font-family="Calibri,Calibri_MSFontService,sans-serif" font-weight="400" font-size="83" transform="matrix(1 0 0 1 1069.93 1213)">Meta Data</text><path d="M922.5 1280.5C899.856 1280.5 881.5 1277.44 881.5 1273.67L881.5 1114.33C881.5 1110.56 863.144 1107.5 840.5 1107.5 863.144 1107.5 881.5 1104.44 881.5 1100.67L881.5 941.333C881.5 937.559 899.856 934.5 922.5 934.5" stroke="#052F6D" stroke-width="6.875" stroke-miterlimit="8" fill="none" fill-rule="evenodd"/><path d="M1588.5 929.5C1610.87 929.5 1629 932.522 1629 936.25L1629 1095.75C1629 1099.48 1647.13 1102.5 1669.5 1102.5 1647.13 1102.5 1629 1105.52 1629 1109.25L1629 1268.75C1629 1272.48 1610.87 1275.5 1588.5 1275.5" stroke="#052F6D" stroke-width="6.875" stroke-miterlimit="8" fill="none" fill-rule="evenodd"/><path d="M0 0 42.2113 0 42.2113 563.668 102.514 563.668" stroke="#052F6D" stroke-width="6.875" stroke-miterlimit="8" fill="none" fill-rule="evenodd" transform="matrix(1 -1.22465e-16 -1.22465e-16 -1 1669.5 1102.17)"/><path d="M1669.5 1102.5 1712.06 1102.5 1712.06 1766.14 1772.01 1766.14" stroke="#052F6D" stroke-width="6.875" stroke-miterlimit="8" fill="none" fill-rule="evenodd"/><path d="M1669.5 1102.5 1772.01 1102.5" stroke="#052F6D" stroke-width="6.875" stroke-miterlimit="8" fill="none" fill-rule="evenodd"/></g></svg>