<svg width="3378" height="1596" xmlns="http://www.w3.org/2000/svg" xmlns:xlink="http://www.w3.org/1999/xlink" xml:space="preserve" overflow="hidden"><defs><linearGradient x1="1843" y1="318" x2="1843" y2="485" gradientUnits="userSpaceOnUse" spreadMethod="reflect" id="fill0"><stop offset="0" stop-color="#9CA0B5"/><stop offset="0.5" stop-color="#8E93A9"/><stop offset="1" stop-color="#79809E"/></linearGradient><linearGradient x1="736" y1="575" x2="736" y2="1209" gradientUnits="userSpaceOnUse" spreadMethod="reflect" id="fill1"><stop offset="0" stop-color="#B7E29D"/><stop offset="0.5" stop-color="#ABD890"/><stop offset="1" stop-color="#9FD77B"/></linearGradient><linearGradient x1="1843.5" y1="575" x2="1843.5" y2="1708" gradientUnits="userSpaceOnUse" spreadMethod="reflect" id="fill2"><stop offset="0" stop-color="#B7E29D"/><stop offset="0.5" stop-color="#ABD890"/><stop offset="1" stop-color="#9FD77B"/></linearGradient><linearGradient x1="2962" y1="575" x2="2962" y2="1209" gradientUnits="userSpaceOnUse" spreadMethod="reflect" id="fill3"><stop offset="0" stop-color="#B7E29D"/><stop offset="0.5" stop-color="#ABD890"/><stop offset="1" stop-color="#9FD77B"/></linearGradient><linearGradient x1="1569" y1="122" x2="1569" y2="255" gradientUnits="userSpaceOnUse" spreadMethod="reflect" id="fill4"><stop offset="0" stop-color="#A6DDEF"/><stop offset="0.5" stop-color="#97D6EB"/><stop offset="1" stop-color="#84D3ED"/></linearGradient><linearGradient x1="2213.5" y1="122" x2="2213.5" y2="255" gradientUnits="userSpaceOnUse" spreadMethod="reflect" id="fill5"><stop offset="0" stop-color="#A6DDEF"/><stop offset="0.5" stop-color="#97D6EB"/><stop offset="1" stop-color="#84D3ED"/></linearGradient></defs><g transform="translate(-167 -113)"><rect x="1234" y="318" width="1218" height="167" stroke="#052F6D" stroke-width="2.29167" stroke-miterlimit="8" fill="url(#fill0)"/><text fill="#052F6D" font-family="Calibri,Calibri_MSFontService,sans-serif" font-weight="700" font-size="110" transform="matrix(1 0 0 1 1273.37 438)">E</text><text fill="#052F6D" font-family="Calibri,Calibri_MSFontService,sans-serif" font-weight="400" font-size="110" transform="matrix(1 0 0 1 1327.23 438)">xpression </text><text fill="#052F6D" font-family="Calibri,Calibri_MSFontService,sans-serif" font-weight="700" font-size="110" transform="matrix(1 0 0 1 1776.1 438)">A</text><text fill="#052F6D" font-family="Calibri,Calibri_MSFontService,sans-serif" font-weight="400" font-size="110" transform="matrix(1 0 0 1 1842.56 438)">nalysis </text><text fill="#052F6D" font-family="Calibri,Calibri_MSFontService,sans-serif" font-weight="700" font-size="110" transform="matrix(1 0 0 1 2162.93 438)">S</text><text fill="#052F6D" font-family="Calibri,Calibri_MSFontService,sans-serif" font-weight="400" font-size="110" transform="matrix(1 0 0 1 2215.07 438)">hin</text><text fill="#052F6D" font-family="Calibri,Calibri_MSFontService,sans-serif" font-weight="700" font-size="110" transform="matrix(1 0 0 1 2356 438)">Y</text><rect x="192" y="575" width="1088" height="634" stroke="#73BB1F" stroke-width="2.29167" stroke-miterlimit="8" fill="url(#fill1)"/><text fill="#052F6D" font-family="Calibri,Calibri_MSFontService,sans-serif" font-weight="700" font-size="83" transform="matrix(1 0 0 1 224.603 669)">Data Exploration</text><text fill="#052F6D" font-family="Arial,Arial_MSFontService,sans-serif" font-weight="400" font-size="83" transform="matrix(1 0 0 1 224.603 768)">•</text><text fill="#052F6D" font-family="Calibri,Calibri_MSFontService,sans-serif" font-weight="400" font-size="83" transform="matrix(1 0 0 1 348.353 768)">Unsupervised Clustering</text><text fill="#052F6D" font-family="Arial,Arial_MSFontService,sans-serif" font-weight="400" font-size="83" transform="matrix(1 0 0 1 224.603 867)">•</text><text fill="#052F6D" font-family="Calibri,Calibri_MSFontService,sans-serif" font-weight="400" font-size="83" transform="matrix(1 0 0 1 348.353 867)">Paired Expression </text><text fill="#052F6D" font-family="Calibri,Calibri_MSFontService,sans-serif" font-weight="400" font-size="83" transform="matrix(1 0 0 1 348.353 966)">Comparison</text><text fill="#052F6D" font-family="Arial,Arial_MSFontService,sans-serif" font-weight="400" font-size="83" transform="matrix(1 0 0 1 224.603 1065)">•</text><text fill="#052F6D" font-family="Calibri,Calibri_MSFontService,sans-serif" font-weight="400" font-size="83" transform="matrix(1 0 0 1 348.353 1065)">Feature Stratification </text><text fill="#052F6D" font-family="Calibri,Calibri_MSFontService,sans-serif" font-weight="400" font-size="83" transform="matrix(1 0 0 1 348.353 1164)">Across Feature Expression</text><rect x="1351" y="575" width="985" height="1133" stroke="#73BB1F" stroke-width="2.29167" stroke-miterlimit="8" fill="url(#fill2)"/><text fill="#052F6D" font-family="Calibri,Calibri_MSFontService,sans-serif" font-weight="700" font-size="83" transform="matrix(1 0 0 1 1384.05 669)">Differential Expression</text><text fill="#052F6D" font-family="Arial,Arial_MSFontService,sans-serif" font-weight="400" font-size="83" transform="matrix(1 0 0 1 1384.05 768)">•</text><text fill="#052F6D" font-family="Calibri,Calibri_MSFontService,sans-serif" font-weight="400" font-size="83" transform="matrix(1 0 0 1 1507.8 768)">Interactive Volcano Plot</text><text fill="#052F6D" font-family="Arial,Arial_MSFontService,sans-serif" font-weight="400" font-size="83" transform="matrix(1 0 0 1 1384.05 867)">•</text><text fill="#052F6D" font-family="Calibri,Calibri_MSFontService,sans-serif" font-weight="400" font-size="83" transform="matrix(1 0 0 1 1507.8 867)">Interactive MA Plot</text><text fill="#052F6D" font-family="Arial,Arial_MSFontService,sans-serif" font-weight="400" font-size="83" transform="matrix(1 0 0 1 1384.05 966)">•</text><text fill="#052F6D" font-family="Calibri,Calibri_MSFontService,sans-serif" font-weight="400" font-size="83" transform="matrix(1 0 0 1 1507.8 966)">Average Feature </text><text fill="#052F6D" font-family="Calibri,Calibri_MSFontService,sans-serif" font-weight="400" font-size="83" transform="matrix(1 0 0 1 1507.8 1065)">Expression Between </text><text fill="#052F6D" font-family="Calibri,Calibri_MSFontService,sans-serif" font-weight="400" font-size="83" transform="matrix(1 0 0 1 1507.8 1164)">Two Groups</text><text fill="#052F6D" font-family="Arial,Arial_MSFontService,sans-serif" font-weight="400" font-size="83" transform="matrix(1 0 0 1 1384.05 1263)">•</text><text fill="#052F6D" font-family="Calibri,Calibri_MSFontService,sans-serif" font-weight="400" font-size="83" transform="matrix(1 0 0 1 1507.8 1263)">Differential Expression </text><text fill="#052F6D" font-family="Calibri,Calibri_MSFontService,sans-serif" font-weight="400" font-size="83" transform="matrix(1 0 0 1 1507.8 1362)">Analysis with Limma</text><text fill="#052F6D" font-family="Arial,Arial_MSFontService,sans-serif" font-weight="400" font-size="83" transform="matrix(1 0 0 1 1384.05 1461)">•</text><text fill="#052F6D" font-family="Calibri,Calibri_MSFontService,sans-serif" font-weight="400" font-size="83" transform="matrix(1 0 0 1 1507.8 1461)">Derive Genesets from </text><text fill="#052F6D" font-family="Calibri,Calibri_MSFontService,sans-serif" font-weight="400" font-size="83" transform="matrix(1 0 0 1 1507.8 1560)">Input Data</text><rect x="2407" y="575" width="1110" height="634" stroke="#73BB1F" stroke-width="2.29167" stroke-miterlimit="8" fill="url(#fill3)"/><text fill="#052F6D" font-family="Calibri,Calibri_MSFontService,sans-serif" font-weight="700" font-size="83" transform="matrix(1 0 0 1 2439.76 669)">Gene Set Enrichment Analysis</text><text fill="#052F6D" font-family="Arial,Arial_MSFontService,sans-serif" font-weight="400" font-size="83" transform="matrix(1 0 0 1 2439.76 768)">•</text><text fill="#052F6D" font-family="Calibri,Calibri_MSFontService,sans-serif" font-weight="400" font-size="83" transform="matrix(1 0 0 1 2563.51 768)">GSEA Enrichment Plot</text><text fill="#052F6D" font-family="Arial,Arial_MSFontService,sans-serif" font-weight="400" font-size="83" transform="matrix(1 0 0 1 2439.76 867)">•</text><text fill="#052F6D" font-family="Calibri,Calibri_MSFontService,sans-serif" font-weight="400" font-size="83" transform="matrix(1 0 0 1 2563.51 867)">GSEA Enrichment Heatmap</text><text fill="#052F6D" font-family="Arial,Arial_MSFontService,sans-serif" font-weight="400" font-size="83" transform="matrix(1 0 0 1 2439.76 966)">•</text><text fill="#052F6D" font-family="Calibri,Calibri_MSFontService,sans-serif" font-weight="400" font-size="83" transform="matrix(1 0 0 1 2563.51 966)">Enriched Signature Table</text><text fill="#052F6D" font-family="Arial,Arial_MSFontService,sans-serif" font-weight="400" font-size="83" transform="matrix(1 0 0 1 2439.76 1065)">•</text><text fill="#052F6D" font-family="Calibri,Calibri_MSFontService,sans-serif" font-weight="400" font-size="83" transform="matrix(1 0 0 1 2563.51 1065)">ssGSEA Boxplots</text><text fill="#052F6D" font-family="Arial,Arial_MSFontService,sans-serif" font-weight="400" font-size="83" transform="matrix(1 0 0 1 2439.76 1164)">•</text><text fill="#052F6D" font-family="Calibri,Calibri_MSFontService,sans-serif" font-weight="400" font-size="83" transform="matrix(1 0 0 1 2563.51 1164)">ssGSEA Heatmaps</text><rect x="1234" y="122" width="670" height="133" stroke="#39BFDF" stroke-width="2.29167" stroke-miterlimit="8" fill="url(#fill4)"/><text fill="#052F6D" font-family="Calibri,Calibri_MSFontService,sans-serif" font-weight="400" font-size="83" transform="matrix(1 0 0 1 1270.72 216)">Expression Matrix</text><rect x="1975" y="122" width="477" height="133" stroke="#39BFDF" stroke-width="2.29167" stroke-miterlimit="8" fill="url(#fill5)"/><text fill="#052F6D" font-family="Calibri,Calibri_MSFontService,sans-serif" font-weight="400" font-size="83" transform="matrix(1 0 0 1 2037.43 216)">Meta</text><text fill="#052F6D" font-family="Calibri,Calibri_MSFontService,sans-serif" font-weight="400" font-size="83" transform="matrix(1 0 0 1 2233.64 216)">Dat</text><text fill="#052F6D" font-family="Calibri,Calibri_MSFontService,sans-serif" font-weight="400" font-size="83" transform="matrix(1 0 0 1 2349.9 216)">a</text><path d="M2470.5 237.5C2470.5 259.868 2467.48 278.001 2463.75 278.001L1850.75 278.001C1847.02 278.001 1844 296.134 1844 318.502 1844 296.134 1840.98 278.001 1837.25 278.001L1224.25 278.001C1220.52 278.001 1217.5 259.868 1217.5 237.5" stroke="#052F6D" stroke-width="6.875" stroke-miterlimit="8" fill="none" fill-rule="evenodd"/><path d="M170.5 567.5C170.5 544.865 173.558 526.515 177.331 526.515L1849.17 526.515C1852.94 526.515 1856 508.165 1856 485.529 1856 508.165 1859.06 526.515 1862.83 526.515L3534.67 526.515C3538.44 526.515 3541.5 544.865 3541.5 567.5" stroke="#052F6D" stroke-width="6.875" stroke-miterlimit="8" fill="none" fill-rule="evenodd"/></g></svg>